<svg width="52" height="50" viewBox="0 0 52 50" fill="none" xmlns="http://www.w3.org/2000/svg">
<g clip-path="url(#clip0)" filter="url(#filter0_d)">
<path d="M47.3206 4.4923C46.7831 3.81675 45.9781 3.44482 45.0536 3.44482C44.5511 3.44482 44.0187 3.5535 43.4715 3.76845L6.22633 18.381C4.24976 19.1563 3.98356 20.3197 4.00068 20.9441C4.0178 21.5686 4.34779 22.7148 6.36396 23.3741C6.37605 23.3779 6.38813 23.3817 6.40022 23.3851L14.1259 25.6574L18.3039 37.9366C18.8736 39.6107 20.1522 40.6505 21.6414 40.6505C22.5803 40.6505 23.5038 40.2462 24.3121 39.4816L29.0907 34.9595L36.0218 40.6954C36.0225 40.6961 36.0235 40.6964 36.0241 40.6971L36.0899 40.7516C36.096 40.7565 36.1024 40.7616 36.1084 40.7665C36.8788 41.3806 37.7197 41.7049 38.5412 41.7053H38.5415C40.1465 41.7053 41.4244 40.4842 41.7967 38.5949L47.8993 7.62472C48.1444 6.38162 47.9389 5.26928 47.3206 4.4923ZM16.7104 25.2258L31.6155 17.3998L22.3346 27.5354C22.1825 27.7013 22.0747 27.9045 22.0217 28.1257L20.2321 35.576L16.7104 25.2258ZM22.5655 37.5323C22.5038 37.5906 22.4417 37.6427 22.3796 37.6906L24.0399 30.7792L27.0601 33.2789L22.5655 37.5323ZM45.3725 7.09857L39.27 38.0691C39.2112 38.3655 39.0236 39.0552 38.5412 39.0552C38.3028 39.0552 38.0034 38.9217 37.6969 38.6791L29.843 32.1797C29.842 32.1786 29.8407 32.1776 29.8393 32.1769L25.1661 28.3092L38.5875 13.6518C39.0172 13.1826 39.0561 12.4639 38.6798 11.9485C38.3032 11.433 37.6207 11.2709 37.0624 11.5641L14.9879 23.1547L7.1572 20.852L44.391 6.24396C44.7055 6.12044 44.9251 6.09456 45.0536 6.09456C45.1325 6.09456 45.2728 6.10422 45.3249 6.17012C45.3933 6.25603 45.4806 6.54895 45.3725 7.09857Z" fill="#2352DE"/>
</g>
<defs>
<filter id="filter0_d" x="0" y="0" width="52" height="53.2222" filterUnits="userSpaceOnUse" color-interpolation-filters="sRGB">
<feFlood flood-opacity="0" result="BackgroundImageFix"/>
<feColorMatrix in="SourceAlpha" type="matrix" values="0 0 0 0 0 0 0 0 0 0 0 0 0 0 0 0 0 0 127 0" result="hardAlpha"/>
<feOffset dy="4"/>
<feGaussianBlur stdDeviation="2"/>
<feComposite in2="hardAlpha" operator="out"/>
<feColorMatrix type="matrix" values="0 0 0 0 0 0 0 0 0 0 0 0 0 0 0 0 0 0 0.25 0"/>
<feBlend mode="normal" in2="BackgroundImageFix" result="effect1_dropShadow"/>
<feBlend mode="normal" in="SourceGraphic" in2="effect1_dropShadow" result="shape"/>
</filter>
<clipPath id="clip0">
<rect width="44" height="45.2222" fill="white" transform="translate(4)"/>
</clipPath>
</defs>
</svg>
